<svg width="40" height="40" xmlns="http://www.w3.org/2000/svg" xmlns:xlink="http://www.w3.org/1999/xlink"><defs><linearGradient x1="50%" y1="0%" x2="50%" y2="100%" id="c"><stop stop-color="#92BC2C" offset="0%"/><stop stop-color="#AFC836" offset="100%"/></linearGradient><filter x="-50%" y="-50%" width="200%" height="200%" filterUnits="objectBoundingBox" id="a"><feOffset in="SourceAlpha" result="shadowOffsetOuter1"/><feGaussianBlur stdDeviation="5" in="shadowOffsetOuter1" result="shadowBlurOuter1"/><feColorMatrix values="0 0 0 0 0.596078431 0 0 0 0 0.764705882 0 0 0 0 0.184313725 0 0 0 0.7 0" in="shadowBlurOuter1"/></filter><rect id="b" x="0" y="0" width="30" height="30" rx="15"/></defs><g fill="none" fill-rule="evenodd"><g transform="translate(5 5)"><use fill="#000" filter="url(#a)" xlink:href="#b"/><use fill="url(#c)" xlink:href="#b"/></g><path d="M15.3 16.276c.6.74 1.099 1.25 1.496 1.534.396.283 1.015.57 1.857.86.77 1.8 1 3.512.69 5.133-.311 1.621-1.1 3.072-2.367 4.35-2.65-1.55-3.976-3.613-3.976-6.19 0-2.576.767-4.472 2.3-5.687zm9.4 0c1.533 1.215 2.3 3.11 2.3 5.687 0 2.577-1.325 4.64-3.976 6.19-1.267-1.278-2.056-2.729-2.367-4.35-.31-1.621-.08-3.332.69-5.133.842-.29 1.46-.577 1.857-.86.397-.283.896-.795 1.496-1.534zm-1.3-4.14a.75.75 0 01.183 1.045l-1.2 1.714c.438.143.875.325 1.312.546-.876 1.508-2.058 2.262-3.544 2.262-1.487 0-2.759-.703-3.815-2.108.45-.287.908-.518 1.374-.692l-1.303-1.551a.75.75 0 011.15-.964l1.692 2.017c.032.038.06.078.082.12l.298-.021.313-.008c.288 0 .575.016.862.05l.04-.068 1.51-2.157a.75.75 0 011.045-.184z" fill="#FFF"/></g></svg>