<svg width="40" height="40" xmlns="http://www.w3.org/2000/svg" xmlns:xlink="http://www.w3.org/1999/xlink"><defs><linearGradient x1="50%" y1="0%" x2="50%" y2="98.711%" id="c"><stop stop-color="#0C69C8" offset="0%"/><stop stop-color="#0180C7" offset="100%"/></linearGradient><filter x="-50%" y="-50%" width="200%" height="200%" filterUnits="objectBoundingBox" id="a"><feOffset in="SourceAlpha" result="shadowOffsetOuter1"/><feGaussianBlur stdDeviation="5" in="shadowOffsetOuter1" result="shadowBlurOuter1"/><feColorMatrix values="0 0 0 0 0.0274509804 0 0 0 0 0.42745098 0 0 0 0 0.752941176 0 0 0 0.7 0" in="shadowBlurOuter1"/></filter><rect id="b" x="0" y="0" width="30" height="30" rx="15"/></defs><g fill="none" fill-rule="evenodd"><g transform="translate(5 5)"><use fill="#000" filter="url(#a)" xlink:href="#b"/><use fill="url(#c)" xlink:href="#b"/></g><path d="M21.276 12c.569 0 .45.709.418 1.016-.021.205-.23.787-.626 1.746a2.203 2.203 0 00-.089.474c3.37.255 6.021 3.01 6.021 6.371C27 25.137 24.074 28 20.464 28c-2.96 0-5.46-1.924-6.265-4.563a2.948 2.948 0 01-.04-.227c-.084-.614-.084-1.04.125-.964.115.042.346.806.692 1.433.28.506.692.907.739.883.057-.03-.238-.41-.441-.773-.17-.304-.286-.62-.133-.66.185-.048.582.572 1.022 1.062.358.398.782.685.843.654.076-.038-.186-.354-.362-.654-.143-.241-.264-.44-.145-.512.254-.155 1.003.85 1.122.75.12-.1-.246-.555.067-.599.105-.014.314.149.695.329a2.728 2.728 0 001.63.534c1.494 0 2.705-1.184 2.705-2.645 0-1.096-.682-2.037-1.654-2.438-.082.173-.177.29-.284.355-.318.194-.27.134-.79.24-.347.07-2.457.549-6.331 1.437-.288.028-.492-.019-.612-.14-.12-.123-.011-.485.325-1.087 1.04-1.876 1.706-2.956 1.996-3.239.185-.18 1.688-1.177 3.233-2.524.503-.438 1.39-1.26 1.916-1.918.264-.33.366-.734.759-.734zm-3.534 5.451c-.505.336-.862.603-1.07.801-.208.198-.484.532-.83 1.004.642.04 1.139-.108 1.492-.444.353-.335.489-.79.408-1.361z" fill="#FFF"/></g></svg>