<svg width="40" height="40" xmlns="http://www.w3.org/2000/svg" xmlns:xlink="http://www.w3.org/1999/xlink"><defs><linearGradient x1="50%" y1="0%" x2="50%" y2="98.711%" id="c"><stop stop-color="#EDD53E" offset="0%"/><stop stop-color="#FBE273" offset="100%"/></linearGradient><filter x="-50%" y="-50%" width="200%" height="200%" filterUnits="objectBoundingBox" id="a"><feOffset in="SourceAlpha" result="shadowOffsetOuter1"/><feGaussianBlur stdDeviation="5" in="shadowOffsetOuter1" result="shadowBlurOuter1"/><feColorMatrix values="0 0 0 0 0.956862745 0 0 0 0 0.835294118 0 0 0 0 0.337254902 0 0 0 0.7 0" in="shadowBlurOuter1"/></filter><rect id="b" x="0" y="0" width="30" height="30" rx="15"/></defs><g fill="none" fill-rule="evenodd"><g transform="translate(5 5)"><use fill="#000" filter="url(#a)" xlink:href="#b"/><use fill="url(#c)" xlink:href="#b"/></g><path d="M17.379 14h4.707a.44.44 0 01.42.31l2.318 7.487a.44.44 0 01-.42.57h-2.882a.22.22 0 00-.211.28l1.443 5.08a.44.44 0 01-.775.384l-6.45-8.577a.44.44 0 01.352-.704h2.243a.22.22 0 00.208-.292l-1.369-3.954A.44.44 0 0117.38 14z" fill="#FFF"/></g></svg>