<svg width="40" height="40" xmlns="http://www.w3.org/2000/svg" xmlns:xlink="http://www.w3.org/1999/xlink"><defs><linearGradient x1="50%" y1="0%" x2="50%" y2="98.359%" id="c"><stop stop-color="#EC8CE5" offset="0%"/><stop stop-color="#F3A7E7" offset="100%"/></linearGradient><filter x="-50%" y="-50%" width="200%" height="200%" filterUnits="objectBoundingBox" id="a"><feOffset in="SourceAlpha" result="shadowOffsetOuter1"/><feGaussianBlur stdDeviation="5" in="shadowOffsetOuter1" result="shadowBlurOuter1"/><feColorMatrix values="0 0 0 0 0.949019608 0 0 0 0 0.580392157 0 0 0 0 0.91372549 0 0 0 0.7 0" in="shadowBlurOuter1"/></filter><rect id="b" x="0" y="0" width="30" height="30" rx="15"/></defs><g fill="none" fill-rule="evenodd"><g transform="translate(5 5)"><use fill="#000" filter="url(#a)" xlink:href="#b"/><use fill="url(#c)" xlink:href="#b"/></g><path d="M20.116 12.556c.041.022.075.056.097.097l1.883 3.443 2.134-.617a.243.243 0 01.3.302l-.631 2.132 3.475 1.9a.243.243 0 010 .426l-3.444 1.882.6 2.027a.243.243 0 01-.3.302l-2.076-.602-1.941 3.552a.243.243 0 01-.426 0l-1.943-3.552-2.074.602a.243.243 0 01-.3-.302l.599-2.027-3.443-1.882a.243.243 0 010-.426l3.474-1.9-.63-2.132a.243.243 0 01.3-.302l2.133.617 1.884-3.443a.243.243 0 01.33-.097zm.02 5.039a.243.243 0 00-.329.096l-.757 1.385-1.385.758a.243.243 0 000 .425l1.385.758.757 1.385a.243.243 0 00.426 0l.758-1.385 1.385-.758a.243.243 0 000-.425l-1.385-.758-.758-1.385a.243.243 0 00-.096-.096z" fill="#FFF"/></g></svg>