<svg width="40" height="40" xmlns="http://www.w3.org/2000/svg" xmlns:xlink="http://www.w3.org/1999/xlink"><defs><linearGradient x1="50%" y1="0%" x2="50%" y2="98.711%" id="c"><stop stop-color="#CE4265" offset="0%"/><stop stop-color="#E74347" offset="100%"/></linearGradient><filter x="-50%" y="-50%" width="200%" height="200%" filterUnits="objectBoundingBox" id="a"><feOffset in="SourceAlpha" result="shadowOffsetOuter1"/><feGaussianBlur stdDeviation="5" in="shadowOffsetOuter1" result="shadowBlurOuter1"/><feColorMatrix values="0 0 0 0 0.831372549 0 0 0 0 0.266666667 0 0 0 0 0.364705882 0 0 0 0.7 0" in="shadowBlurOuter1"/></filter><rect id="b" x="0" y="0" width="30" height="30" rx="15"/></defs><g fill="none" fill-rule="evenodd"><g transform="translate(5 5)"><use fill="#000" filter="url(#a)" xlink:href="#b"/><use fill="url(#c)" xlink:href="#b"/></g><path d="M16.69 13c.583 0 1.096.301 1.39.756l.138-.006c.107 0 .212.01.314.03a1.655 1.655 0 012.734.47h.007c.117 0 .232.012.343.036a1.655 1.655 0 012.485.804c.125.042.244.1.354.17A1.655 1.655 0 0127 16.655v5.015c-.026 3.5-3.15 6.331-7 6.331-3.866 0-7-2.854-7-6.375 0-1.695.726-3.235 1.91-4.377-.01 2.249.044 3.358.165 3.33.254-.057.258-2.168.012-6.33A1.654 1.654 0 0116.691 13z" fill="#FFF"/></g></svg>