<svg width="40" height="40" xmlns="http://www.w3.org/2000/svg" xmlns:xlink="http://www.w3.org/1999/xlink"><defs><linearGradient x1="50%" y1="0%" x2="50%" y2="100%" id="c"><stop stop-color="#FB9B51" offset="0%"/><stop stop-color="#FBAE46" offset="100%"/></linearGradient><filter x="-50%" y="-50%" width="200%" height="200%" filterUnits="objectBoundingBox" id="a"><feOffset in="SourceAlpha" result="shadowOffsetOuter1"/><feGaussianBlur stdDeviation="5" in="shadowOffsetOuter1" result="shadowBlurOuter1"/><feColorMatrix values="0 0 0 0 0.996078431 0 0 0 0 0.619607843 0 0 0 0 0.329411765 0 0 0 0.7 0" in="shadowBlurOuter1"/></filter><rect id="b" x="0" y="0" width="30" height="30" rx="15"/></defs><g fill="none" fill-rule="evenodd"><g transform="translate(5 5)"><use fill="#000" filter="url(#a)" xlink:href="#b"/><use fill="url(#c)" xlink:href="#b"/></g><path d="M19.333 13c.898.791 1.472 1.698 1.722 2.72.376 1.532-.868 3.62.694 3.538 1.041-.055 1.11-.885.204-2.49 2.362 1.241 3.455 2.947 3.279 5.119-.177 2.17-1.468 3.503-3.873 3.997.629-.517 1.004-.998 1.126-1.444.123-.446.065-1.128-.172-2.045-.172.747-.392 1.259-.66 1.535a2.126 2.126 0 01-1.364.662c.49-.24.829-.74.829-1.316 0-.811-.669-1.468-1.494-1.468s-1.493.657-1.493 1.468c0 .221.05.43.139.62a1.54 1.54 0 01-.597-1.07c-.384 1.594-.047 2.766 1.011 3.517 1.058.75 2.624.802 4.697.158-2.966 2.087-5.55 1.995-7.747-.277-1.894-1.957-2.141-4.224-.742-6.8-.06.238-.09.497-.09.774s.075.522.225.733c.449-.946.848-1.611 1.197-1.996.878-.966 2.149-1.61 2.647-2.167.797-.89.95-2.146.462-3.768z" fill="#FFF"/></g></svg>