<svg width="40" height="40" xmlns="http://www.w3.org/2000/svg" xmlns:xlink="http://www.w3.org/1999/xlink"><defs><linearGradient x1="50%" y1="0%" x2="50%" y2="100%" id="c"><stop stop-color="#90A7DA" offset="0%"/><stop stop-color="#A6C2F2" offset="100%"/></linearGradient><filter x="-50%" y="-50%" width="200%" height="200%" filterUnits="objectBoundingBox" id="a"><feOffset in="SourceAlpha" result="shadowOffsetOuter1"/><feGaussianBlur stdDeviation="5" in="shadowOffsetOuter1" result="shadowBlurOuter1"/><feColorMatrix values="0 0 0 0 0.615686275 0 0 0 0 0.709803922 0 0 0 0 0.894117647 0 0 0 0.7 0" in="shadowBlurOuter1"/></filter><rect id="b" x="0" y="0" width="30" height="30" rx="15"/></defs><g fill="none" fill-rule="evenodd"><g transform="translate(5 5)"><use fill="#000" filter="url(#a)" xlink:href="#b"/><use fill="url(#c)" xlink:href="#b"/></g><path d="M18.236 27c2.197 0 4.078-1.221 4.855-2.952.01-.022-3.118.812-3.018.518.044-.132 1.961-.832 3.358-1.65.535-.312.926-.8 1.173-1.463-.902.438-1.58.712-2.037.823-1.378.336-2.59.3-2.59.265 0-.076 2.014-.458 4.813-2.164.878-.535 1.436-1.263 1.674-2.185-.965.575-1.74.958-2.323 1.147-2.075.676-3.969.879-3.969.788 0-.196 1.667-.654 3.434-1.51.919-.446 1.714-1.027 2.636-1.674C27.248 16.237 27.834 15.256 28 14c-.992.64-1.73 1.066-2.214 1.278-2.997 1.316-5.643 2.006-7.55 2.155-2.88.225-5.236 2.235-5.236 4.843C13 24.886 15.344 27 18.236 27z" fill="#FFF"/></g></svg>