<svg width="40" height="40" xmlns="http://www.w3.org/2000/svg" xmlns:xlink="http://www.w3.org/1999/xlink"><defs><linearGradient x1="50%" y1="0%" x2="50%" y2="98.711%" id="c"><stop stop-color="#516AAC" offset="0%"/><stop stop-color="#7773D4" offset="100%"/></linearGradient><filter x="-50%" y="-50%" width="200%" height="200%" filterUnits="objectBoundingBox" id="a"><feOffset in="SourceAlpha" result="shadowOffsetOuter1"/><feGaussianBlur stdDeviation="5" in="shadowOffsetOuter1" result="shadowBlurOuter1"/><feColorMatrix values="0 0 0 0 0.396078431 0 0 0 0 0.423529412 0 0 0 0 0.776470588 0 0 0 0.7 0" in="shadowBlurOuter1"/></filter><rect id="b" x="0" y="0" width="30" height="30" rx="15"/></defs><g fill="none" fill-rule="evenodd"><g transform="translate(5 5)"><use fill="#000" filter="url(#a)" xlink:href="#b"/><use fill="url(#c)" xlink:href="#b"/></g><path d="M20 13c3.866 0 7 3.07 7 6.858a6.755 6.755 0 01-1.792 4.582c-.6.654 1.617.92 1.124 1.595-.27.368-1.728.839-3.243.917-1.263.064-2.709.064-3.2 0C16.056 26.447 13 23.645 13 19.858 13 16.07 16.134 13 20 13zm-1.66 6a.964.964 0 01-.964-.928 1.068 1.068 0 00-.548.929c0 .591.49 1.071 1.094 1.071.604 0 1.094-.48 1.094-1.071h-.677zm4.065-.929l.001-.035a.964.964 0 01-.964.965h-.676c0 .591.49 1.071 1.093 1.071.604 0 1.094-.48 1.094-1.071 0-.398-.22-.744-.548-.93z" fill="#FFF"/></g></svg>