<svg width="40" height="40" xmlns="http://www.w3.org/2000/svg" xmlns:xlink="http://www.w3.org/1999/xlink"><defs><linearGradient x1="50%" y1="0%" x2="50%" y2="100%" id="c"><stop stop-color="#5FBC51" offset="0%"/><stop stop-color="#5AC178" offset="100%"/></linearGradient><filter x="-50%" y="-50%" width="200%" height="200%" filterUnits="objectBoundingBox" id="a"><feOffset in="SourceAlpha" result="shadowOffsetOuter1"/><feGaussianBlur stdDeviation="5" in="shadowOffsetOuter1" result="shadowBlurOuter1"/><feColorMatrix values="0 0 0 0 0.392156863 0 0 0 0 0.725490196 0 0 0 0 0.329411765 0 0 0 0.7 0" in="shadowBlurOuter1"/></filter><rect id="b" x="0" y="0" width="30" height="30" rx="15"/></defs><g fill="none" fill-rule="evenodd"><g transform="translate(5 5)"><use fill="#000" filter="url(#a)" xlink:href="#b"/><use fill="url(#c)" xlink:href="#b"/></g><path d="M24.824 14.597c.693 5.877.243 9.613-1.35 11.206a6.123 6.123 0 01-7.803.713l1.922-2.359 3.072-.663-2.508-.25 1.594-1.623 1.814-.398-1.434-.424 1.434-2.588-2.04 2.288-.788-1.111.277 1.835-1.42 1.603-.66-2.027v2.695l-1.978 2.442-.138-.133a6.12 6.12 0 01-.156-8.494l.156-.162c1.593-1.593 4.929-2.443 10.006-2.55z" fill="#FFF"/></g></svg>