<svg width="40" height="40" xmlns="http://www.w3.org/2000/svg" xmlns:xlink="http://www.w3.org/1999/xlink"><defs><linearGradient x1="50%" y1="0%" x2="50%" y2="98.711%" id="c"><stop stop-color="#DC7545" offset="0%"/><stop stop-color="#D29463" offset="100%"/></linearGradient><filter x="-50%" y="-50%" width="200%" height="200%" filterUnits="objectBoundingBox" id="a"><feOffset in="SourceAlpha" result="shadowOffsetOuter1"/><feGaussianBlur stdDeviation="5" in="shadowOffsetOuter1" result="shadowBlurOuter1"/><feColorMatrix values="0 0 0 0 0.847058824 0 0 0 0 0.509803922 0 0 0 0 0.333333333 0 0 0 0.7 0" in="shadowBlurOuter1"/></filter><rect id="b" x="0" y="0" width="30" height="30" rx="15"/></defs><g fill="none" fill-rule="evenodd"><g transform="translate(5 5)"><use fill="#000" filter="url(#a)" xlink:href="#b"/><use fill="url(#c)" xlink:href="#b"/></g><path d="M17.529 17.287a.201.201 0 01.189.27l-2.648 7.31a.201.201 0 01-.189.133h-2.183a.201.201 0 01-.189-.272l2.739-7.31a.201.201 0 01.188-.13zM23.622 14c.086 0 .162.054.19.135l3.68 10.555a.201.201 0 01-.19.267H15.806a.044.044 0 01-.042-.059l3.81-10.764a.201.201 0 01.19-.134z" fill="#FFF"/></g></svg>