<svg width="40" height="40" xmlns="http://www.w3.org/2000/svg" xmlns:xlink="http://www.w3.org/1999/xlink"><defs><linearGradient x1="50%" y1="0%" x2="50%" y2="100%" id="c"><stop stop-color="#70CCBD" offset="0%"/><stop stop-color="#8CDDD4" offset="100%"/></linearGradient><filter x="-50%" y="-50%" width="200%" height="200%" filterUnits="objectBoundingBox" id="a"><feOffset in="SourceAlpha" result="shadowOffsetOuter1"/><feGaussianBlur stdDeviation="5" in="shadowOffsetOuter1" result="shadowBlurOuter1"/><feColorMatrix values="0 0 0 0 0.494117647 0 0 0 0 0.831372549 0 0 0 0 0.788235294 0 0 0 0.7 0" in="shadowBlurOuter1"/></filter><rect id="b" x="0" y="0" width="30" height="30" rx="15"/></defs><g fill="none" fill-rule="evenodd"><g transform="translate(5 5)"><use fill="#000" filter="url(#a)" xlink:href="#b"/><use fill="url(#c)" xlink:href="#b"/></g><g fill="#FFF"><path d="M24.153 12.836l.052 4.577-3.993 1.917-.049-4.322zM28.155 20.049l-3.952 2.26-3.955-2.264 3.953-2.076zM19.545 20.049l-3.952 2.26-3.955-2.264 3.952-2.076zM15.548 12.817l4.103 2.032-.105 4.427-3.874-1.918zM24.265 27.212l-4.103-2.032.105-4.428 3.874 1.919zM15.69 27.253l-.052-4.578 3.992-1.916.05 4.322z"/></g></g></svg>