<svg width="40" height="40" xmlns="http://www.w3.org/2000/svg" xmlns:xlink="http://www.w3.org/1999/xlink"><defs><linearGradient x1="50%" y1="0%" x2="50%" y2="100%" id="c"><stop stop-color="#A864C7" offset="0%"/><stop stop-color="#C261D4" offset="100%"/></linearGradient><filter x="-50%" y="-50%" width="200%" height="200%" filterUnits="objectBoundingBox" id="a"><feOffset in="SourceAlpha" result="shadowOffsetOuter1"/><feGaussianBlur stdDeviation="5" in="shadowOffsetOuter1" result="shadowBlurOuter1"/><feColorMatrix values="0 0 0 0 0.639215686 0 0 0 0 0.419607843 0 0 0 0 0.796078431 0 0 0 0.7 0" in="shadowBlurOuter1"/></filter><rect id="b" x="0" y="0" width="30" height="30" rx="15"/></defs><g fill="none" fill-rule="evenodd"><g transform="translate(5 5)"><use fill="#000" filter="url(#a)" xlink:href="#b"/><use fill="url(#c)" xlink:href="#b"/></g><path d="M20.5 13c4.142 0 7.5 2.964 7.5 6.62 0 1.946-.952 3.696-2.466 4.907.063.26.098.537.098.825 0 1.463-.884 2.648-1.974 2.648-.646 0-1.22-.416-1.58-1.06-.358.644-.932 1.06-1.578 1.06-.709 0-1.33-.501-1.678-1.254-.347.753-.969 1.254-1.677 1.254-1.09 0-1.974-1.185-1.974-2.648 0-.338.047-.661.133-.958C13.884 23.19 13 21.496 13 19.62c0-3.656 3.358-6.62 7.5-6.62zm-.099 3.39c-2.452 0-4.44 1.505-4.44 3.36 0 1.857 1.988 3.362 4.44 3.362 2.453 0 4.441-1.505 4.441-3.361 0-1.856-1.988-3.36-4.44-3.36z" fill="#FFF"/></g></svg>