<svg width="40" height="40" xmlns="http://www.w3.org/2000/svg" xmlns:xlink="http://www.w3.org/1999/xlink"><defs><linearGradient x1="50%" y1="0%" x2="50%" y2="100%" id="c"><stop stop-color="#C5B489" offset="0%"/><stop stop-color="#D7CD90" offset="100%"/></linearGradient><filter x="-50%" y="-50%" width="200%" height="200%" filterUnits="objectBoundingBox" id="a"><feOffset in="SourceAlpha" result="shadowOffsetOuter1"/><feGaussianBlur stdDeviation="5" in="shadowOffsetOuter1" result="shadowBlurOuter1"/><feColorMatrix values="0 0 0 0 0.796078431 0 0 0 0 0.756862745 0 0 0 0 0.580392157 0 0 0 0.7 0" in="shadowBlurOuter1"/></filter><rect id="b" x="0" y="0" width="30" height="30" rx="15"/></defs><g fill="none" fill-rule="evenodd"><g transform="translate(5 5)"><use fill="#000" filter="url(#a)" xlink:href="#b"/><use fill="url(#c)" xlink:href="#b"/></g><path d="M22.995 21.029a.183.183 0 01.253.05L24.54 23a.183.183 0 01-.045.25l-3.756 2.695a.183.183 0 01-.163.025l-3.249-1.064 5.666-3.877.002-.001zm.422-6.003l.014.001c.1.015.169.108.154.208l-.69 4.628a.183.183 0 01-.077.123l-6.686 4.616a.183.183 0 01-.16.023l-2.846-.93a.183.183 0 01-.126-.174v-2.923c0-.042.015-.083.042-.116l4.469-5.39a.183.183 0 01.14-.067h5.766zm1.44-.026c.079 0 .15.052.173.128l1.932 6.116a.183.183 0 01-.062.198l-1.239.968a.183.183 0 01-.26-.036l-1.547-2.108a.183.183 0 01-.033-.14l.854-4.983a.172.172 0 01.17-.143z" fill="#FFF"/></g></svg>