<svg width="40" height="40" xmlns="http://www.w3.org/2000/svg" xmlns:xlink="http://www.w3.org/1999/xlink"><defs><linearGradient x1="50%" y1="0%" x2="50%" y2="100%" id="c"><stop stop-color="#52869D" offset="0%"/><stop stop-color="#58A6AA" offset="100%"/></linearGradient><filter x="-50%" y="-50%" width="200%" height="200%" filterUnits="objectBoundingBox" id="a"><feOffset in="SourceAlpha" result="shadowOffsetOuter1"/><feGaussianBlur stdDeviation="5" in="shadowOffsetOuter1" result="shadowBlurOuter1"/><feColorMatrix values="0 0 0 0 0.31372549 0 0 0 0 0.580392157 0 0 0 0 0.631372549 0 0 0 0.7 0" in="shadowBlurOuter1"/></filter><rect id="b" x="0" y="0" width="30" height="30" rx="15"/></defs><g fill="none" fill-rule="evenodd"><g transform="translate(5 5)"><use fill="#000" filter="url(#a)" xlink:href="#b"/><use fill="url(#c)" xlink:href="#b"/></g><path d="M23.577 14c.133 0 .256.07.323.186l3.549 6.13a.373.373 0 010 .374l-3.55 6.124a.373.373 0 01-.322.186h-7.116a.373.373 0 01-.322-.184l-3.588-6.124a.373.373 0 010-.377l3.588-6.13a.373.373 0 01.322-.185zM20 17a3.5 3.5 0 100 7 3.5 3.5 0 000-7z" fill="#FFF"/></g></svg>