<svg width="40" height="40" xmlns="http://www.w3.org/2000/svg" xmlns:xlink="http://www.w3.org/1999/xlink"><defs><linearGradient x1="50%" y1="0%" x2="50%" y2="100%" id="c"><stop stop-color="#4A90DD" offset="0%"/><stop stop-color="#6CBDE4" offset="100%"/></linearGradient><filter x="-50%" y="-50%" width="200%" height="200%" filterUnits="objectBoundingBox" id="a"><feOffset in="SourceAlpha" result="shadowOffsetOuter1"/><feGaussianBlur stdDeviation="5" in="shadowOffsetOuter1" result="shadowBlurOuter1"/><feColorMatrix values="0 0 0 0 0.333333333 0 0 0 0 0.619607843 0 0 0 0 0.874509804 0 0 0 0.7 0" in="shadowBlurOuter1"/></filter><rect id="b" x="0" y="0" width="30" height="30" rx="15"/></defs><g fill="none" fill-rule="evenodd"><g transform="translate(5 5)"><use fill="#000" filter="url(#a)" xlink:href="#b"/><use fill="url(#c)" xlink:href="#b"/></g><path d="M19.73 13.078a.5.5 0 01.691.152l.258.405C23.56 18.185 25 21.314 25 23.019 25 25.769 22.761 28 20 28s-5-2.23-5-4.981c0-1.755 1.526-5.018 4.579-9.79a.5.5 0 01.152-.151zm-2.667 9.96c-.289 1.873.412 2.995 2.103 3.365 1.692.37 3.02-.088 3.985-1.376-1.355.537-2.593.623-3.713.257-1.121-.367-1.913-1.116-2.375-2.247z" fill="#FFF"/></g></svg>