<?xml version="1.0" standalone="no"?>
<!DOCTYPE svg PUBLIC "-//W3C//DTD SVG 20010904//EN"
 "http://www.w3.org/TR/2001/REC-SVG-20010904/DTD/svg10.dtd">
<svg version="1.0" xmlns="http://www.w3.org/2000/svg"
 width="900.000000pt" height="900.000000pt" viewBox="0 0 900.000000 900.000000"
 preserveAspectRatio="xMidYMid meet">
<metadata>
Created by potrace 1.11, written by Peter Selinger 2001-2013
</metadata>
<g transform="translate(0.000000,900.000000) scale(0.100000,-0.100000)"
fill="#000000" stroke="none">
<path d="M4185 7389 c-27 -5 -113 -18 -190 -30 -77 -12 -147 -22 -155 -22 -8
0 -19 -3 -25 -7 -5 -4 -48 -17 -95 -29 -47 -12 -137 -40 -200 -63 -63 -22
-125 -41 -137 -42 -12 -1 -20 -3 -18 -5 2 -1 -71 -41 -161 -87 -91 -46 -186
-97 -210 -114 -25 -16 -48 -30 -51 -30 -3 0 -36 -22 -74 -50 -38 -27 -71 -50
-74 -50 -5 0 -26 -16 -84 -65 -20 -17 -56 -46 -81 -65 -65 -50 -291 -282 -367
-377 -46 -58 -70 -80 -82 -76 -14 4 -14 3 -1 -6 12 -8 11 -14 -13 -39 -15 -15
-27 -31 -27 -35 0 -4 -31 -54 -68 -110 -37 -56 -88 -142 -112 -192 -25 -49
-48 -91 -52 -93 -5 -2 -8 -7 -8 -12 0 -4 -7 -25 -16 -45 -12 -30 -18 -35 -26
-24 -7 10 -8 9 -3 -7 5 -20 -17 -89 -26 -80 -2 2 -5 -5 -5 -17 -1 -12 -18 -67
-38 -122 -63 -179 -103 -348 -126 -540 -6 -49 -15 -112 -20 -140 -5 -27 -8
-165 -6 -305 3 -231 6 -272 35 -440 17 -102 40 -217 51 -255 27 -96 100 -318
109 -330 4 -5 16 -32 26 -60 21 -59 88 -195 139 -284 24 -42 34 -71 31 -85 -4
-13 -3 -16 2 -9 6 9 16 3 34 -20 14 -18 28 -39 31 -47 8 -21 163 -225 223
-296 140 -163 333 -337 523 -473 85 -60 266 -171 280 -171 6 0 12 -3 14 -7 2
-5 20 -16 41 -26 21 -9 35 -22 32 -27 -3 -5 0 -7 8 -4 8 3 34 -4 58 -15 66
-30 117 -51 189 -76 36 -13 90 -33 120 -44 215 -80 528 -130 854 -138 210 -5
261 -2 521 28 153 19 386 76 519 128 39 16 89 34 111 41 22 7 68 26 103 42 34
16 68 26 74 22 6 -4 9 -3 5 2 -3 5 34 29 81 54 86 44 128 69 247 146 33 21 65
41 71 44 6 3 29 20 50 38 21 18 75 61 119 96 145 116 323 301 474 492 30 38
151 224 151 232 0 6 4 12 8 14 22 8 144 253 197 393 15 39 30 79 35 90 9 20
59 175 84 265 13 42 21 86 46 228 60 344 44 882 -35 1157 -8 28 -28 100 -44
160 -38 141 -107 323 -161 425 -10 19 -39 76 -65 125 -26 50 -53 97 -61 106
-8 8 -14 18 -14 22 0 9 -125 193 -168 247 -44 55 -58 72 -113 133 -31 35 -39
51 -30 56 9 6 9 11 -3 20 -8 7 -20 10 -25 7 -6 -4 -45 29 -88 72 -43 43 -105
101 -138 128 -33 27 -76 64 -95 81 -19 18 -41 33 -48 33 -7 0 -15 7 -18 15 -4
8 -11 15 -16 15 -8 0 -62 35 -113 73 -37 28 -87 57 -240 142 -53 30 -140 73
-192 96 -17 7 -29 17 -27 21 3 4 -1 6 -8 3 -7 -3 -49 9 -93 25 -133 51 -359
113 -495 136 -200 33 -318 42 -560 41 -135 0 -267 -4 -295 -8z m2445 -889 c0
-5 -4 -10 -10 -10 -5 0 -10 5 -10 10 0 6 5 10 10 10 6 0 10 -4 10 -10z m-375
-163 c64 -34 86 -53 119 -105 60 -96 56 -223 -10 -313 -33 -46 -102 -99 -127
-99 -7 0 -18 -5 -25 -12 -21 -21 -140 -14 -193 11 -89 42 -160 136 -175 230
-20 123 80 269 212 311 50 16 145 5 199 -23z m-1460 -259 c123 -34 218 -76
306 -134 89 -59 192 -159 240 -234 50 -77 99 -159 99 -166 0 -3 9 -37 21 -74
l21 -69 51 -9 c29 -6 106 -20 172 -32 130 -24 311 -69 415 -102 192 -60 516
-185 488 -187 -4 -1 -42 13 -85 30 -250 100 -511 175 -819 236 l-244 48 -14
40 c-7 22 -19 58 -26 80 -12 38 -28 74 -63 140 -38 70 -128 174 -205 236 -217
175 -520 250 -822 204 -224 -34 -400 -117 -540 -256 -115 -113 -166 -196 -219
-354 l-30 -90 -143 -26 c-148 -28 -336 -69 -423 -93 -233 -66 -361 -109 -565
-190 -35 -15 -60 -22 -55 -17 12 11 215 93 360 144 159 57 398 122 555 151 80
15 168 32 196 37 l52 10 17 57 c27 85 70 183 78 175 4 -3 7 0 7 8 0 49 162
226 275 301 194 128 348 168 625 164 160 -3 197 -7 275 -28z m-73 -188 c199
-62 344 -189 437 -380 161 -328 47 -726 -264 -924 -62 -40 -131 -69 -215 -92
-75 -20 -269 -24 -335 -6 -22 6 -57 15 -77 20 -33 9 -64 23 -163 76 -48 26
-168 142 -211 206 -96 139 -146 333 -125 486 39 276 211 498 464 598 101 40
138 45 287 41 102 -2 151 -8 202 -25z m1940 -142 c133 -103 -15 -316 -159
-228 -92 56 -94 177 -3 238 46 31 114 27 162 -10z m8 -698 c19 -11 31 -19 25
-19 -5 0 -26 8 -45 19 -19 11 -30 19 -25 19 6 0 26 -8 45 -19z m-4340 -10 c-8
-5 -19 -10 -25 -10 -5 0 -3 5 5 10 8 5 20 10 25 10 6 0 3 -5 -5 -10z m4405
-28 c-3 -3 -11 0 -18 7 -9 10 -8 11 6 5 10 -3 15 -9 12 -12z m45 -12 c8 -5 11
-10 5 -10 -5 0 -17 5 -25 10 -8 5 -10 10 -5 10 6 0 17 -5 25 -10z m-3216 -125
c55 -171 136 -304 250 -413 85 -81 158 -129 272 -183 420 -196 972 -51 1219
321 57 86 111 200 126 264 20 90 19 90 151 71 355 -50 823 -208 1208 -407 74
-39 140 -74 145 -78 6 -5 37 -23 70 -41 33 -18 93 -54 134 -81 40 -26 78 -48
82 -48 5 0 7 -17 4 -37 -2 -21 -9 -76 -15 -123 -6 -47 -14 -103 -20 -125 -5
-22 -16 -71 -25 -110 -17 -74 -52 -190 -87 -288 -15 -41 -24 -54 -30 -45 -6 9
-7 6 -3 -9 4 -14 -5 -46 -25 -90 -30 -63 -33 -67 -46 -49 -8 11 -14 15 -14 10
0 -6 5 -15 12 -22 13 -13 11 -19 -66 -170 -38 -72 -56 -95 -56 -70 0 9 -3 9
-10 -2 -9 -13 -11 -13 -21 0 -9 13 -10 13 -6 0 2 -8 12 -14 21 -14 9 1 16 -2
16 -6 0 -9 -72 -120 -107 -165 -35 -45 -37 -47 -62 -83 -18 -26 -26 -31 -33
-20 -6 9 -7 6 -3 -9 3 -13 1 -25 -7 -30 -7 -4 -38 -37 -68 -73 -67 -79 -66
-79 -103 -74 -29 3 -74 -13 -63 -23 3 -3 11 -1 18 5 12 9 68 12 68 3 0 -6 -68
-71 -75 -71 -3 0 3 14 15 30 12 17 17 30 12 30 -6 0 -13 -7 -16 -16 -3 -8 -10
-13 -15 -10 -4 3 -7 -6 -5 -19 3 -33 -119 -149 -148 -139 -10 3 -18 0 -18 -6
0 -6 5 -8 10 -5 6 3 10 2 10 -3 0 -9 -150 -125 -213 -165 -15 -10 -33 -15 -39
-11 -6 4 -8 3 -4 -4 10 -17 -218 -147 -237 -135 -6 3 -7 1 -3 -5 4 -8 -4 -16
-21 -22 -15 -6 -47 -20 -70 -32 -23 -11 -49 -18 -57 -15 -9 4 -15 1 -13 -5 3
-15 -238 -110 -284 -112 -21 0 -35 -4 -33 -7 2 -4 -18 -12 -44 -19 -26 -7 -67
-18 -92 -26 -108 -32 -335 -56 -573 -61 -347 -8 -580 18 -837 92 -137 39 -343
115 -348 127 -2 4 -9 8 -15 8 -6 0 -37 12 -68 27 -39 19 -59 34 -61 48 -2 11
-11 21 -23 22 -16 1 -16 1 -2 -3 9 -3 17 -12 17 -20 0 -13 -21 -5 -84 34 -5 3
-1 9 10 14 14 6 11 7 -10 3 -23 -5 -46 5 -115 46 -47 29 -88 55 -91 59 -3 3
-24 18 -48 33 -25 16 -40 32 -36 39 4 7 3 8 -4 4 -6 -3 -29 6 -51 21 -40 28
-51 43 -31 43 6 0 10 -4 10 -10 0 -5 15 -17 33 -25 l32 -16 -35 30 c-19 17
-41 28 -49 25 -16 -5 -63 35 -55 47 3 5 -1 6 -8 4 -8 -3 -60 40 -124 103 -98
96 -111 112 -109 140 1 17 -2 29 -7 26 -5 -3 -6 -15 -2 -27 6 -21 6 -21 -20 2
-14 14 -26 29 -26 34 0 5 -11 18 -25 28 -13 11 -56 62 -95 114 -51 68 -70 100
-65 114 4 13 1 18 -10 17 -9 0 -23 12 -33 29 -9 16 -24 37 -33 48 -12 13 -16
32 -13 65 2 30 0 41 -6 32 -5 -8 -7 -25 -3 -37 3 -13 3 -23 0 -23 -8 0 -37 61
-37 77 0 7 -4 13 -10 13 -5 0 -10 6 -10 14 0 8 -4 16 -8 18 -13 5 -53 99 -49
111 5 12 6 10 27 -47 6 -16 13 -27 15 -24 3 2 -3 23 -12 47 -10 27 -21 40 -30
37 -18 -7 -45 48 -38 81 4 23 4 24 -4 8 -8 -19 -10 -18 -22 10 -7 17 -13 49
-13 73 -1 23 -2 38 -4 32 -8 -24 -23 -6 -38 48 -9 31 -27 89 -40 127 -34 102
-95 422 -93 490 l0 20 9 -20 c9 -20 9 -20 9 0 2 40 558 353 604 340 17 -5 19
-4 7 4 -12 8 -11 11 5 17 11 3 49 19 85 34 36 15 92 39 125 53 239 102 793
244 909 234 13 -2 24 -20 40 -72z"/>
<path d="M3986 5193 c17 -190 63 -304 158 -398 73 -71 125 -99 232 -121 135
-28 303 -5 399 54 137 84 214 222 235 424 12 118 12 108 0 108 -5 0 -10 -8
-10 -18 0 -37 -32 -139 -63 -202 -59 -120 -186 -219 -317 -249 -59 -14 -166
-14 -232 0 -57 12 -143 46 -168 66 -67 53 -86 73 -119 122 -44 66 -89 175 -98
237 -9 71 -24 51 -17 -23z"/>
<path d="M2115 4460 c-3 -5 1 -10 9 -10 9 0 16 5 16 10 0 6 -4 10 -9 10 -6 0
-13 -4 -16 -10z"/>
<path d="M7116 4316 c6 -15 34 -30 34 -18 0 4 -9 13 -20 19 -16 11 -18 10 -14
-1z"/>
<path d="M7065 4300 c3 -5 16 -10 28 -9 21 0 21 1 2 9 -28 12 -37 12 -30 0z"/>
<path d="M1826 4275 c4 -8 8 -15 10 -15 2 0 4 7 4 15 0 8 -4 15 -10 15 -5 0
-7 -7 -4 -15z"/>
<path d="M7202 4200 c0 -19 2 -27 5 -17 2 9 2 25 0 35 -3 9 -5 1 -5 -18z"/>
<path d="M1821 4142 c0 -13 -5 -21 -10 -18 -5 4 -7 -4 -3 -16 5 -22 5 -22 14
2 5 13 7 31 5 39 -3 10 -5 7 -6 -7z"/>
<path d="M1826 4049 c-4 -23 -5 -44 -2 -46 2 -2 7 14 11 37 4 23 5 43 2 46 -2
3 -7 -14 -11 -37z"/>
<path d="M7142 4015 c0 -16 2 -22 5 -12 2 9 2 23 0 30 -3 6 -5 -1 -5 -18z"/>
<path d="M7172 4020 c0 -14 2 -19 5 -12 2 6 2 18 0 25 -3 6 -5 1 -5 -13z"/>
<path d="M7122 3940 c0 -19 2 -27 5 -17 2 9 2 25 0 35 -3 9 -5 1 -5 -18z"/>
<path d="M1831 3944 c0 -11 3 -14 6 -6 3 7 2 16 -1 19 -3 4 -6 -2 -5 -13z"/>
<path d="M7147 3920 c3 -34 2 -41 -6 -30 -7 9 -11 10 -11 3 0 -6 5 -15 10 -18
16 -10 23 24 12 58 -10 30 -10 29 -5 -13z"/>
<path d="M1850 3870 c0 -3 7 -23 15 -45 12 -33 14 -36 15 -14 0 14 -7 34 -15
45 -8 10 -14 17 -15 14z"/>
<path d="M7124 3849 c-3 -6 -1 -16 5 -22 8 -8 11 -5 11 11 0 24 -5 28 -16 11z"/>
<path d="M1902 3825 c0 -16 2 -22 5 -12 2 9 2 23 0 30 -3 6 -5 -1 -5 -18z"/>
<path d="M1890 3741 c0 -11 4 -22 9 -25 4 -3 6 6 3 19 -5 30 -12 33 -12 6z"/>
<path d="M1912 3680 c0 -14 2 -19 5 -12 2 6 2 18 0 25 -3 6 -5 1 -5 -13z"/>
<path d="M7049 3662 c-3 -20 -2 -29 4 -23 5 5 7 19 5 32 -3 20 -5 19 -9 -9z"/>
<path d="M7045 3601 c-3 -5 -1 -12 5 -16 5 -3 10 1 10 9 0 18 -6 21 -15 7z"/>
<path d="M1956 3565 c-3 -8 -1 -17 3 -20 5 -3 11 2 15 10 3 8 1 17 -3 20 -5 3
-11 -2 -15 -10z"/>
<path d="M1991 3524 c0 -11 3 -14 6 -6 3 7 2 16 -1 19 -3 4 -6 -2 -5 -13z"/>
<path d="M6971 3470 c1 -8 5 -26 9 -40 l8 -25 1 25 c0 14 -4 32 -9 40 -9 13
-10 13 -9 0z"/>
<path d="M6907 3288 c-8 -18 -18 -44 -22 -58 -7 -24 -7 -24 9 -5 8 11 16 25
16 30 0 6 7 22 14 38 8 15 11 27 7 27 -5 0 -15 -15 -24 -32z"/>
<path d="M2200 3088 c0 -9 5 -20 10 -23 13 -8 13 5 0 25 -8 13 -10 13 -10 -2z"/>
<path d="M6730 3069 c0 -5 5 -7 10 -4 6 3 10 8 10 11 0 2 -4 4 -10 4 -5 0 -10
-5 -10 -11z"/>
<path d="M6756 3044 c-4 -9 -4 -19 -1 -22 2 -3 7 3 11 12 4 9 4 19 1 22 -2 3
-7 -3 -11 -12z"/>
<path d="M2265 2980 c10 -11 20 -18 23 -16 5 6 -23 36 -34 36 -4 0 1 -9 11
-20z"/>
<path d="M6726 2984 c-5 -14 -4 -15 9 -4 17 14 19 20 6 20 -5 0 -12 -7 -15
-16z"/>
<path d="M2300 2939 c0 -5 5 -7 10 -4 6 3 10 8 10 11 0 2 -4 4 -10 4 -5 0 -10
-5 -10 -11z"/>
<path d="M2382 2890 c0 -14 2 -19 5 -12 2 6 2 18 0 25 -3 6 -5 1 -5 -13z"/>
<path d="M6650 2890 c0 -5 5 -10 10 -10 6 0 10 5 10 10 0 6 -4 10 -10 10 -5 0
-10 -4 -10 -10z"/>
<path d="M2350 2872 c6 -13 14 -21 18 -18 3 4 -2 14 -12 24 -18 16 -18 16 -6
-6z"/>
<path d="M2380 2825 c7 -8 20 -15 28 -15 13 0 12 3 -4 15 -25 19 -40 19 -24 0z"/>
<path d="M6568 2833 c6 -2 12 -11 12 -19 0 -8 5 -14 10 -14 6 0 10 4 10 8 0
12 -22 32 -34 31 -6 0 -5 -3 2 -6z"/>
<path d="M6561 2784 c0 -11 3 -14 6 -6 3 7 2 16 -1 19 -3 4 -6 -2 -5 -13z"/>
<path d="M2446 2763 c-6 -14 -5 -15 5 -6 7 7 10 15 7 18 -3 3 -9 -2 -12 -12z"/>
<path d="M6485 2740 c-3 -5 -1 -10 4 -10 6 0 11 5 11 10 0 6 -2 10 -4 10 -3 0
-8 -4 -11 -10z"/>
<path d="M6510 2719 c0 -5 5 -7 10 -4 6 3 10 8 10 11 0 2 -4 4 -10 4 -5 0 -10
-5 -10 -11z"/>
<path d="M2520 2674 c0 0 9 -11 19 -23 l19 -22 -2 24 c0 14 -7 23 -18 23 -10
0 -18 -1 -18 -2z"/>
<path d="M2607 2584 c7 -20 29 -23 29 -5 0 9 -8 17 -17 17 -9 0 -15 -6 -12
-12z"/>
<path d="M6338 2589 c-19 -11 -24 -44 -8 -54 6 -3 7 1 4 10 -4 9 2 25 11 35
20 22 18 24 -7 9z"/>
<path d="M6240 2501 c0 -5 7 -11 15 -15 8 -3 15 -1 15 3 0 5 -7 11 -15 15 -8
3 -15 1 -15 -3z"/>
<path d="M2746 2466 c10 -8 21 -12 24 -10 5 6 -21 24 -34 24 -6 0 -1 -6 10
-14z"/>
<path d="M6167 2423 c7 -17 21 -16 38 1 11 11 9 13 -14 12 -18 -1 -27 -5 -24
-13z"/>
<path d="M2844 2415 c8 -8 18 -15 22 -15 3 0 1 7 -6 15 -7 8 -17 15 -22 15 -5
0 -3 -7 6 -15z"/>
<path d="M2930 2356 c0 -2 7 -6 15 -10 8 -3 15 -1 15 4 0 6 -7 10 -15 10 -8 0
-15 -2 -15 -4z"/>
<path d="M6080 2338 c-9 -20 -9 -21 2 -7 7 9 20 18 28 22 12 4 12 6 -2 6 -10
1 -22 -9 -28 -21z"/>
<path d="M2900 2340 c0 -5 5 -10 10 -10 6 0 10 5 10 10 0 6 -4 10 -10 10 -5 0
-10 -4 -10 -10z"/>
<path d="M3018 2270 c12 -5 22 -14 22 -20 0 -5 5 -10 12 -10 6 0 3 9 -7 20
-10 11 -25 20 -34 19 -10 0 -8 -3 7 -9z"/>
<path d="M5934 2245 c-18 -14 -18 -14 4 -8 12 3 22 9 22 14 0 12 -3 11 -26 -6z"/>
<path d="M3080 2241 c0 -5 5 -13 10 -16 6 -3 10 -2 10 4 0 5 -4 13 -10 16 -5
3 -10 2 -10 -4z"/>
<path d="M3110 2200 c8 -5 20 -10 25 -10 6 0 3 5 -5 10 -8 5 -19 10 -25 10 -5
0 -3 -5 5 -10z"/>
<path d="M3195 2190 c3 -5 8 -10 11 -10 2 0 4 5 4 10 0 6 -5 10 -11 10 -5 0
-7 -4 -4 -10z"/>
<path d="M3240 2186 c0 -2 8 -10 18 -17 15 -13 16 -12 3 4 -13 16 -21 21 -21
13z"/>
<path d="M5764 2177 c3 -10 6 -21 6 -23 0 -9 26 -2 45 13 19 15 19 15 -9 9
-19 -5 -32 -3 -38 6 -7 9 -8 8 -4 -5z"/>
<path d="M3278 2113 c7 -3 16 -2 19 1 4 3 -2 6 -13 5 -11 0 -14 -3 -6 -6z"/>
<path d="M3325 2110 c-16 -7 -14 -8 12 -7 17 1 29 5 26 10 -5 9 -12 8 -38 -3z"/>
<path d="M5675 2109 c-11 -17 -2 -18 19 -3 17 12 17 14 4 14 -9 0 -20 -5 -23
-11z"/>
<path d="M3355 2080 c3 -5 10 -10 16 -10 5 0 9 5 9 10 0 6 -7 10 -16 10 -8 0
-12 -4 -9 -10z"/>
<path d="M5628 2083 c7 -3 16 -2 19 1 4 3 -2 6 -13 5 -11 0 -14 -3 -6 -6z"/>
<path d="M3468 2033 c7 -3 16 -2 19 1 4 3 -2 6 -13 5 -11 0 -14 -3 -6 -6z"/>
<path d="M5508 2033 c6 -2 18 -2 25 0 6 3 1 5 -13 5 -14 0 -19 -2 -12 -5z"/>
<path d="M3500 2020 c0 -5 5 -10 10 -10 6 0 10 5 10 10 0 6 -4 10 -10 10 -5 0
-10 -4 -10 -10z"/>
<path d="M5435 2020 c-22 -6 -25 -8 -10 -10 29 -3 49 0 60 11 11 11 -6 10 -50
-1z"/>
<path d="M3538 2003 c6 -2 18 -2 25 0 6 3 1 5 -13 5 -14 0 -19 -2 -12 -5z"/>
<path d="M3693 1953 c9 -2 23 -2 30 0 6 3 -1 5 -18 5 -16 0 -22 -2 -12 -5z"/>
<path d="M3780 1943 c0 -5 24 -8 53 -9 37 -1 45 1 27 6 -34 11 -80 12 -80 3z"/>
<path d="M5210 1940 c-12 -8 -10 -10 10 -10 14 0 32 5 40 10 12 8 10 10 -10
10 -14 0 -32 -5 -40 -10z"/>
<path d="M5148 1913 c7 -3 16 -2 19 1 4 3 -2 6 -13 5 -11 0 -14 -3 -6 -6z"/>
<path d="M3885 1900 c27 -12 43 -12 25 0 -8 5 -22 9 -30 9 -10 0 -8 -3 5 -9z"/>
<path d="M4180 1870 l-65 -7 62 -1 c34 -1 65 3 68 8 3 6 5 9 3 8 -2 -1 -32 -4
-68 -8z"/>
<path d="M4485 1870 l-160 -6 193 -1 c106 0 195 -3 199 -7 3 -3 -86 -7 -198
-8 l-204 -2 175 -4 c96 -2 200 0 230 4 l55 7 -60 13 c-33 7 -62 12 -65 11 -3
0 -77 -4 -165 -7z"/>
<path d="M4778 1873 c7 -3 16 -2 19 1 4 3 -2 6 -13 5 -11 0 -14 -3 -6 -6z"/>
<path d="M4886 1871 c-5 -8 84 -3 93 5 2 2 -16 4 -42 4 -25 0 -48 -4 -51 -9z"/>
<path d="M5128 7353 c7 -3 16 -2 19 1 4 3 -2 6 -13 5 -11 0 -14 -3 -6 -6z"/>
<path d="M5548 7233 c7 -3 16 -2 19 1 4 3 -2 6 -13 5 -11 0 -14 -3 -6 -6z"/>
<path d="M5585 7220 c3 -5 8 -10 11 -10 2 0 4 5 4 10 0 6 -5 10 -11 10 -5 0
-7 -4 -4 -10z"/>
<path d="M6290 6826 c0 -2 8 -10 18 -17 15 -13 16 -12 3 4 -13 16 -21 21 -21
13z"/>
<path d="M6702 6426 c7 -8 15 -12 17 -11 5 6 -10 25 -20 25 -5 0 -4 -6 3 -14z"/>
<path d="M6856 6235 c4 -8 8 -15 10 -15 2 0 4 7 4 15 0 8 -4 15 -10 15 -5 0
-7 -7 -4 -15z"/>
<path d="M1786 5563 c-6 -14 -5 -15 5 -6 7 7 10 15 7 18 -3 3 -9 -2 -12 -12z"/>
<path d="M7272 5440 c0 -14 2 -19 5 -12 2 6 2 18 0 25 -3 6 -5 1 -5 -13z"/>
<path d="M7331 5144 c0 -11 3 -14 6 -6 3 7 2 16 -1 19 -3 4 -6 -2 -5 -13z"/>
<path d="M1613 4740 c0 -25 2 -35 4 -22 2 12 2 32 0 45 -2 12 -4 2 -4 -23z"/>
<path d="M1691 3814 c0 -11 3 -14 6 -6 3 7 2 16 -1 19 -3 4 -6 -2 -5 -13z"/>
<path d="M1846 3317 c3 -10 9 -15 12 -12 3 3 0 11 -7 18 -10 9 -11 8 -5 -6z"/>
<path d="M6946 3013 c-6 -14 -5 -15 5 -6 7 7 10 15 7 18 -3 3 -9 -2 -12 -12z"/>
<path d="M5960 2060 c0 -5 5 -10 10 -10 6 0 10 5 10 10 0 6 -4 10 -10 10 -5 0
-10 -4 -10 -10z"/>
<path d="M3357 1899 c7 -7 15 -10 18 -7 3 3 -2 9 -12 12 -14 6 -15 5 -6 -5z"/>
<path d="M5638 1893 c7 -3 16 -2 19 1 4 3 -2 6 -13 5 -11 0 -14 -3 -6 -6z"/>
<path d="M4658 1663 c12 -2 32 -2 45 0 12 2 2 4 -23 4 -25 0 -35 -2 -22 -4z"/>
</g>
</svg>
