<svg width="28" height="28" viewBox="0 0 28 28" fill="none" xmlns="http://www.w3.org/2000/svg">
<path d="M4.10049 4.10049C6.74472 1.45627 10.2605 0 14 0C17.7395 0 21.2553 1.45627 23.8995 4.10049C26.5437 6.74472 28 10.2605 28 14C28 17.7395 26.5437 21.2553 23.8995 23.8995C21.2553 26.5437 17.7395 28 14 28C11.4399 28 8.935 27.3023 6.75604 25.9823C6.23929 25.6694 6.07416 24.9969 6.38712 24.4803C6.70007 23.9636 7.37277 23.7985 7.88931 24.1114C9.72647 25.2242 11.8396 25.8125 14 25.8125C20.1447 25.8125 25.2077 21.0963 25.7614 15.0938H18.7993C18.3004 17.283 16.3381 18.9219 14 18.9219C11.6619 18.9219 9.69955 17.283 9.20074 15.0938H2.23877C2.42078 17.0349 3.08621 18.9046 4.19043 20.5563C4.52625 21.0583 4.39124 21.7376 3.88901 22.0735C3.38699 22.4091 2.70767 22.274 2.37186 21.772C0.820312 19.451 0 16.7634 0 14C0 10.2605 1.45627 6.74472 4.10049 4.10049V4.10049ZM14 2.1875C7.85535 2.1875 2.79227 6.90366 2.23856 12.9062H9.20074C9.69955 10.717 11.6619 9.07812 14 9.07812C16.3381 9.07812 18.3004 10.717 18.7993 12.9062H25.7614C25.2077 6.90366 20.1447 2.1875 14 2.1875V2.1875ZM14 16.7344C15.5078 16.7344 16.7344 15.5078 16.7344 14C16.7344 12.4922 15.5078 11.2656 14 11.2656C12.4922 11.2656 11.2656 12.4922 11.2656 14C11.2656 15.5078 12.4922 16.7344 14 16.7344V16.7344Z" fill="white"/>
</svg>
