<svg width="22" height="22" viewBox="0 0 22 22" fill="none" xmlns="http://www.w3.org/2000/svg">
<mask id="path-1-outside-1" maskUnits="userSpaceOnUse" x="0" y="0" width="22" height="22" fill="black">
<rect fill="white" width="22" height="22"/>
<path fill-rule="evenodd" clip-rule="evenodd" d="M1 9.80758C1 4.95121 4.95121 1 9.80758 1C14.6642 1 18.6152 4.95121 18.6152 9.80758C18.6152 11.944 17.8506 13.9052 16.5807 15.4318L20.7611 19.6122C21.0787 19.9295 21.0787 20.4445 20.7611 20.7618C20.6023 20.9206 20.3941 21 20.1863 21C19.9782 21 19.7703 20.9206 19.6115 20.7618L15.4311 16.5814C13.9045 17.8509 11.9436 18.6152 9.80758 18.6152C4.95121 18.6152 1 14.6642 1 9.80758ZM2.62602 9.80762C2.62602 13.7675 5.84769 16.9892 9.80758 16.9892C13.7675 16.9892 16.9891 13.7675 16.9891 9.80758C16.9891 5.84769 13.7675 2.62602 9.80758 2.62602C5.84769 2.62602 2.62602 5.84773 2.62602 9.80762Z"/>
</mask>
<path fill-rule="evenodd" clip-rule="evenodd" d="M1 9.80758C1 4.95121 4.95121 1 9.80758 1C14.6642 1 18.6152 4.95121 18.6152 9.80758C18.6152 11.944 17.8506 13.9052 16.5807 15.4318L20.7611 19.6122C21.0787 19.9295 21.0787 20.4445 20.7611 20.7618C20.6023 20.9206 20.3941 21 20.1863 21C19.9782 21 19.7703 20.9206 19.6115 20.7618L15.4311 16.5814C13.9045 17.8509 11.9436 18.6152 9.80758 18.6152C4.95121 18.6152 1 14.6642 1 9.80758ZM2.62602 9.80762C2.62602 13.7675 5.84769 16.9892 9.80758 16.9892C13.7675 16.9892 16.9891 13.7675 16.9891 9.80758C16.9891 5.84769 13.7675 2.62602 9.80758 2.62602C5.84769 2.62602 2.62602 5.84773 2.62602 9.80762Z" fill="white"/>
<path d="M16.5807 15.4318L16.1963 15.1121L15.9046 15.4628L16.2272 15.7854L16.5807 15.4318ZM20.7611 19.6122L20.4075 19.9658L20.4077 19.9659L20.7611 19.6122ZM20.7611 20.7618L20.4077 20.4081L20.4076 20.4082L20.7611 20.7618ZM19.6115 20.7618L19.2579 21.1154L19.2579 21.1154L19.6115 20.7618ZM15.4311 16.5814L15.7846 16.2278L15.4621 15.9053L15.1114 16.1969L15.4311 16.5814ZM9.80758 0.5C4.67507 0.5 0.5 4.67507 0.5 9.80758H1.5C1.5 5.22735 5.22735 1.5 9.80758 1.5V0.5ZM19.1152 9.80758C19.1152 4.67508 14.9404 0.5 9.80758 0.5V1.5C14.3881 1.5 18.1152 5.22734 18.1152 9.80758H19.1152ZM16.9651 15.7516C18.3067 14.1387 19.1152 12.0654 19.1152 9.80758H18.1152C18.1152 11.8226 17.3945 13.6716 16.1963 15.1121L16.9651 15.7516ZM21.1146 19.2586L16.9343 15.0783L16.2272 15.7854L20.4075 19.9658L21.1146 19.2586ZM21.1145 21.1155C21.6276 20.6029 21.6276 19.7711 21.1145 19.2585L20.4077 19.9659C20.5298 20.088 20.5298 20.2861 20.4077 20.4081L21.1145 21.1155ZM20.1863 21.5C20.5215 21.5 20.8583 21.3716 21.1146 21.1154L20.4076 20.4082C20.3462 20.4696 20.2668 20.5 20.1863 20.5V21.5ZM19.2579 21.1154C19.5141 21.3716 19.8508 21.5 20.1863 21.5V20.5C20.1055 20.5 20.0264 20.4696 19.965 20.4083L19.2579 21.1154ZM15.0775 16.9349L19.2579 21.1154L19.965 20.4083L15.7846 16.2278L15.0775 16.9349ZM9.80758 19.1152C12.0651 19.1152 14.138 18.307 15.7508 16.9658L15.1114 16.1969C13.671 17.3948 11.8222 18.1152 9.80758 18.1152V19.1152ZM0.5 9.80758C0.5 14.9404 4.67508 19.1152 9.80758 19.1152V18.1152C5.22734 18.1152 1.5 14.3881 1.5 9.80758H0.5ZM9.80758 16.4892C6.12384 16.4892 3.12602 13.4914 3.12602 9.80762H2.12602C2.12602 14.0436 5.57155 17.4892 9.80758 17.4892V16.4892ZM16.4891 9.80758C16.4891 13.4913 13.4913 16.4892 9.80758 16.4892V17.4892C14.0436 17.4892 17.4891 14.0436 17.4891 9.80758H16.4891ZM9.80758 3.12602C13.4913 3.12602 16.4891 6.12384 16.4891 9.80758H17.4891C17.4891 5.57155 14.0436 2.12602 9.80758 2.12602V3.12602ZM3.12602 9.80762C3.12602 6.12387 6.12384 3.12602 9.80758 3.12602V2.12602C5.57155 2.12602 2.12602 5.5716 2.12602 9.80762H3.12602Z" fill="white" mask="url(#path-1-outside-1)"/>
</svg>
